<svg xmlns="http://www.w3.org/2000/svg" version="1.1" xmlns:xlink="http://www.w3.org/1999/xlink" xmlns:svgjs="http://svgjs.com/svgjs" height="169.13329391479493" width="266.57000732421875"><defs id="SvgjsDefs1042"></defs><g id="SvgjsG1043" rel="mainfill" name="main_text" xmlns:name="main_text" transform="translate(-5.739999771118164,-82.41670913696288)" fill="#FF712C"><path d="M36.94 229.69Q35.14 233.64 29.05 236.96Q23.31 240 19.30 240L14.04 240Q5.74 240 5.74 234.54Q5.74 232.05 7.40 228.31L17.57 205.42Q22.06 195.32 30.57 195.32L39.15 195.32Q43.51 195.32 43.51 198.71Q43.51 199.54 43.30 200.57L32.99 204.31L34.65 200.57Q34.72 200.51 34.72 200.30Q34.72 199.40 32.72 199.40Q30.36 199.40 29.88 200.64L15.49 232.88Q14.94 234.33 14.94 234.81Q14.94 235.85 17.15 235.85Q24.55 235.85 30.57 231.91Q34.10 229.56 35.14 227.20L37.00 229.62L36.94 229.69L36.94 229.69ZM64.74 229.69Q63.08 233.50 57.06 236.82Q51.39 240 46.55 240Q45.65 240 44.41 239.45Q42.19 238.27 42.19 236.13Q42.19 234.26 43.71 231.15Q45.30 227.83 45.30 227.34Q45.30 226.58 44.41 226.58Q42.88 226.58 42.19 228.10L36.94 240L26.84 240L40.53 208.81L48.69 213.37L47.45 216.28Q50.35 213.23 55.13 213.23Q59.14 213.23 59.14 216.00Q59.14 217.11 58.52 218.56Q57.75 220.15 56.37 221.26L50.35 220.70Q50.35 220.63 50.84 219.98Q51.32 219.32 51.39 219.25Q51.46 219.11 51.46 218.90Q51.46 218.21 50.56 218.21Q48.21 218.21 44.82 222.22Q45.17 222.02 46.62 221.91Q48.07 221.81 50.08 221.95Q51.05 222.02 51.77 222.19Q52.50 222.36 53.40 222.78Q54.30 223.05 54.61 223.78Q54.92 224.51 54.92 225.61Q54.92 227.69 53.40 231.08Q52.98 232.05 52.98 232.60Q52.98 233.64 54.09 233.64Q56.09 233.64 59.07 231.42Q61.97 229.21 62.94 227.20L64.81 229.62L64.74 229.69L64.74 229.69ZM74.91 219.66Q75.05 219.25 75.05 219.25Q75.05 218.42 73.87 218.42Q72.28 218.42 71.80 219.73L65.92 232.88Q65.43 233.91 65.43 234.88Q65.43 235.85 66.26 235.85Q67.71 235.85 68.89 233.22L74.91 219.66M90.82 229.62Q89.09 233.57 83.07 236.82Q77.40 240 72.56 240Q70.27 240 70.00 237.92Q67.58 240.07 64.39 240.07Q57.06 240.07 57.06 235.16Q57.06 232.60 58.93 228.31L59.90 226.17Q62.04 221.39 65.50 218.14Q69.58 214.34 74.22 214.34Q77.61 214.34 79.40 216.62L80.03 215.24L86.39 215.24L83.35 222.09Q82.65 223.68 81.58 226.06Q80.51 228.45 79.13 231.63Q78.85 232.18 78.85 232.74Q78.85 233.64 79.89 233.64Q81.89 233.64 84.94 231.42Q87.98 229.21 88.95 227.20L90.82 229.62L90.82 229.62ZM126.58 229.69Q124.92 233.50 118.90 236.82Q115.99 238.41 113.57 239.20Q111.15 240 108.73 240Q106.93 240 105.83 238.65Q104.72 237.30 104.72 235.50Q104.72 234.26 105.20 233.22L106.10 231.15L107.90 227.20L111.08 220.15Q111.57 219.11 111.57 218.14Q111.57 217.17 110.74 217.17Q109.35 217.17 108.18 219.80L102.71 232.18L102.64 232.32Q101.12 235.85 97.53 237.99Q94.34 239.93 90.54 239.93Q87.77 239.93 85.97 238.82Q83.90 237.51 83.90 235.30L83.90 235.23L88.26 232.18Q87.77 233.77 88.53 234.64Q89.30 235.50 90.40 234.95Q91.37 234.95 91.92 233.91Q92.34 233.22 92.65 232.63Q92.96 232.05 93.31 231.35Q93.65 230.66 94.03 229.80Q94.41 228.93 94.97 227.76L95.04 227.76L96.42 224.71Q98.56 219.87 103.13 216.55Q107.97 212.96 112.60 212.96Q120.01 212.96 120.01 217.87Q120.01 220.56 118.07 224.71L115.16 231.15L114.96 231.63Q114.68 232.25 114.68 232.74Q114.68 233.64 115.72 233.64Q117.72 233.64 120.77 231.42Q123.81 229.21 124.78 227.20L126.65 229.62L126.58 229.69L126.58 229.69ZM135.15 221.95Q133.91 221.67 133.91 219.60Q133.91 218.90 134.12 218.49Q133.08 219.04 132.52 220.29L126.37 234.12Q126.09 234.67 126.09 235.30Q126.09 236.33 127.06 236.33Q128.72 236.33 129.76 234.12L135.15 221.95M141.10 219.18Q141.52 218.28 141.52 217.31Q141.52 216.00 140.62 216.00Q139.16 216.00 139.16 217.38Q139.16 218.07 139.65 218.66Q140.13 219.25 140.76 219.25Q141.03 219.25 141.10 219.18M153.55 220.08Q150.16 223.54 143.18 224.30Q142.90 224.92 142.48 225.86Q142.07 226.79 141.52 228.10Q136.26 240 129.34 240L121.53 240Q117.45 240 117.45 236.20Q117.45 233.84 119.11 229.97L121.87 223.88Q123.53 220.08 126.51 217.45Q129.90 214.34 133.49 214.34L136.33 214.34Q138.47 212.40 141.72 212.40Q145.87 212.40 145.87 215.86Q145.87 217.59 144.63 219.73Q145.67 220.01 146.57 220.01Q148.29 220.01 151.48 218.07L153.55 220.08L153.55 220.08ZM147.81 245.26Q148.29 244.08 149.06 242.35Q149.82 240.62 150.92 238.34Q149.75 239.17 148.81 239.93Q147.88 240.69 147.33 241.45Q146.91 242.01 146.39 242.94Q145.87 243.87 145.32 245.26Q145.25 245.33 145.25 245.53Q145.25 246.29 146.29 246.29Q147.26 246.29 147.81 245.26M159.64 219.66Q159.71 219.46 159.71 219.25Q159.71 218.42 158.53 218.42Q157.01 218.42 156.53 219.73L151.89 230.11Q151.41 231.08 151.41 231.91Q151.41 232.81 152.17 232.81Q153.69 232.81 155.07 229.90L159.64 219.66M175.48 229.62Q174.09 232.67 169.94 235.50Q165.79 238.41 162.82 238.41Q161.71 238.41 161.02 237.99L158.53 243.67Q156.94 247.40 152.93 249.61Q149.47 251.55 145.46 251.55Q142.55 251.55 140.58 250.34Q138.61 249.13 138.61 246.85Q138.61 245.67 139.23 244.22Q141.38 239.38 147.60 237.79Q143.11 236.96 143.11 232.25Q143.11 229.49 144.63 226.17Q146.77 221.39 150.23 218.14Q154.24 214.34 158.88 214.34Q162.27 214.34 164.13 216.62L164.76 215.24L171.12 215.24L164.27 230.52Q163.58 231.91 163.58 232.74Q163.58 233.64 164.62 233.64Q166.62 233.64 169.67 231.42Q172.64 229.28 173.61 227.20L175.48 229.62L175.48 229.62ZM187.17 219.66Q187.24 219.46 187.24 219.25Q187.24 218.42 186.06 218.42Q184.54 218.42 184.05 219.73L177.97 233.22Q177.55 234.40 177.55 235.09Q177.55 236.06 178.31 236.06Q179.84 236.06 181.08 233.22L187.17 219.66M203.77 226.93Q203.35 227.48 202.52 228.38Q196.30 235.92 190.42 235.92Q188.27 235.92 187.79 234.47Q186.82 235.64 185.65 236.61Q184.47 237.58 183.16 238.34Q180.32 239.93 177.90 239.93Q176.38 239.93 175.13 239.31L169.87 251.07L160.05 251.07L175.96 215.24L182.26 215.24L181.36 217.31Q184.12 214.96 188.55 214.96Q194.64 214.96 194.64 219.25Q194.64 221.88 191.59 228.79Q191.32 229.35 191.32 229.90Q191.32 231.08 192.84 231.08Q195.19 231.08 197.61 229.21Q200.17 227.20 201.14 224.92L203.77 226.93L203.77 226.93ZM210.75 221.95Q209.51 221.67 209.51 219.60Q209.51 218.90 209.72 218.49Q208.68 219.04 208.12 220.29L201.97 234.12Q201.69 234.67 201.69 235.30Q201.69 236.33 202.66 236.33Q204.32 236.33 205.36 234.12L210.75 221.95M216.70 219.18Q217.12 218.28 217.12 217.31Q217.12 216.00 216.22 216.00Q214.76 216.00 214.76 217.38Q214.76 218.07 215.25 218.66Q215.73 219.25 216.36 219.25Q216.63 219.25 216.70 219.18M229.15 220.08Q225.76 223.54 218.78 224.30Q218.50 224.92 218.08 225.86Q217.67 226.79 217.12 228.10Q211.86 240 204.94 240L197.13 240Q193.05 240 193.05 236.20Q193.05 233.84 194.71 229.97L197.47 223.88Q199.13 220.08 202.11 217.45Q205.50 214.34 209.09 214.34L211.93 214.34Q214.07 212.40 217.32 212.40Q221.47 212.40 221.47 215.86Q221.47 217.59 220.23 219.73Q221.27 220.01 222.17 220.01Q223.89 220.01 227.08 218.07L229.15 220.08L229.15 220.08ZM272.24 229.69Q270.58 233.50 264.57 236.82Q261.66 238.41 259.45 239.20Q257.23 240 254.81 240Q253.01 240 251.67 238.65Q250.32 237.30 250.32 235.50Q250.32 234.26 250.80 233.22L256.96 219.60Q257.44 218.56 257.44 217.59Q257.44 216.62 256.61 216.62Q255.16 216.62 253.98 219.25L244.78 239.72L237.73 235.50L244.85 219.60Q245.34 218.56 245.34 217.59Q245.34 216.62 244.51 216.62Q243.12 216.62 241.95 219.25L236.14 232.32Q234.62 235.85 231.02 237.99Q227.84 239.93 224.03 239.93Q221.27 239.93 219.47 238.82Q217.39 237.51 217.39 235.30L217.39 235.23L221.75 232.18Q221.27 233.77 222.03 234.64Q222.79 235.50 223.89 234.95Q224.86 234.95 225.42 233.91Q225.83 233.22 226.14 232.63Q226.45 232.05 226.80 231.35Q227.15 230.66 227.53 229.80Q227.91 228.93 228.46 227.76L228.53 227.76L231.36 221.46Q234.20 215.31 242.64 213.02Q244.99 212.40 246.37 212.40Q250.73 212.40 252.46 213.92Q255.43 212.40 258.41 212.40Q265.81 212.40 265.81 217.31Q265.81 219.94 263.94 224.16L261.80 228.93L260.62 231.63Q260.35 232.25 260.35 232.74Q260.35 233.64 261.38 233.64Q263.39 233.64 266.43 231.42Q269.48 229.21 270.44 227.20L272.31 229.62L272.24 229.69L272.24 229.69Z" fill="#FF712C" style="fill: rgb(255, 113, 44);"></path></g><g id="SvgjsG1044" rel="mainfill" name="symbol" xmlns:name="symbol_mainfill" transform="translate(78.28500366210938,-12.096699714660646) scale(1.1)" fill="#FF712C"><g fill="#FF712C"><polygon fill="" points="0,65.459 5,63.25 5.828,62.551 5.828,62.17 6.467,61.698 7.264,61.698 7.754,61.394 8.278,61.304    9.181,60.335 10.524,59.784 11.673,58.982 12.314,58.453 12.832,58.294 13.821,57.558 14.3,57.008 15.871,55.636 16.178,55.223    16.696,54.614 17.768,53.708 19.222,53.112 21.25,51.694 24.782,49.167 24.921,48.691 25.512,47.706 26.125,47.501 27.221,46.088    27.518,43.581 27.516,42.546 27.978,41.344 28.596,40.357 29.428,39.618 29.369,39.248 29.365,38.777 29.256,38.366 29.432,38.016    29.432,37.142 29.824,36.75 30.174,36.089 30.74,33.701 30.92,32.676 30.51,31.291 30.51,30.433 31.365,29.756 32.11,29.595    32.945,28.968 33.669,29.467 34.333,29.356 34.74,28.852 35.359,28.469 35.518,27.538 35.915,26.696 37.052,26.045 37.914,26.301    38.766,26.076 38.878,24.702 38.748,23.418 38.878,21.923 38.993,21.259 38.988,20.369 39.211,18.856 39.872,17.755 41.314,14.955    42.438,13.421 43.408,12.783 44.205,12.164 45.021,11.198 45.62,11.479 44.673,12.637 43.792,13.32 42.853,13.939 41.875,15.299    40.449,18.076 39.812,19.137 39.646,20.412 39.648,21.316 39.532,22.01 39.405,23.416 39.536,24.696 39.386,26.596 37.903,26.987    37.135,26.759 36.423,27.166 36.135,27.776 35.965,28.871 35.141,29.38 34.702,29.965 33.515,30.163 32.962,29.782 32.32,30.226    31.585,30.384 31.17,30.738 31.17,31.241 31.598,32.634 31.386,33.835 30.787,36.322 30.326,37.183 30.092,37.416 30.057,38.242    29.959,38.438 30.025,38.733 30.025,39.195 30.138,39.872 29.071,40.819 28.567,41.636 28.176,42.668 28.176,43.62 27.854,46.349    26.529,48.063 25.953,48.255 25.512,48.99 25.361,49.566 19.536,53.689 18.069,54.299 17.163,55.078 16.351,56.085 14.764,57.477    14.266,58.042 13.08,58.908 12.576,59.063 12.079,59.502 10.837,60.361 9.503,60.916 8.618,61.915 7.938,62.031 7.473,62.358    6.685,62.358 6.488,62.504 6.488,62.872 5.964,63.28 5.322,63.989 0,66.209  "></polygon><polygon fill="" points="94.584,55.862 94.32,55.885 93.34,55.125 92.977,55.092 92.912,54.895 92.516,54.993 92.219,54.63    91.326,54.993 91.359,55.323 90.863,56.115 90.5,55.521 89.609,55.158 89.279,55.62 88.65,55.521 88.121,54.828 87.295,54.53    86.338,54.828 86.273,54.366 85.91,54.3 85.547,54.616 85.58,55 85.314,55 85.248,54.419 84.324,53.566 83.994,52.363    83.498,52.094 82.311,50.339 81.781,50.404 81.748,50.007 81.154,49.874 80.988,49.312 79.996,48.981 79.732,47.859 79.436,47.43    78.842,47.462 78.51,47.033 77.752,47.1 77.023,46.77 76.562,46.868 76.1,46.703 75.17,45.48 75,45.316 75,45.019 74.443,44.358    74.33,43.863 74.298,43.5 74,43.038 74,42.211 74.372,41.617 74.426,41.253 74.85,40.792 74.847,40.461 74.896,39.635    74.342,38.975 74.379,38.776 73.949,38.083 73.39,37.257 73.49,36.926 72.699,35.936 72.533,35.342 71.41,33.591 71.344,33.294    71.014,33.195 70.947,32.666 70.287,31.444 70.32,30.85 69.594,29.826 69.494,29.066 68.689,28.318 67.811,26.644 67.671,26.071    67,25.279 67,24.75 65.247,23.121 64.701,22.9 64.188,22.373 62.707,21.569 60.154,19.421 60.02,19.026 59.391,18.597    59.224,18.068 57.572,16.978 56.777,16.053 56.58,16.186 54.367,14.237 53.838,13.939 52.748,12.981 52.055,12.684 51.791,12.783    50.801,12.326 50.107,12 49.809,12 49.115,11.731 48.389,11.679 47.564,11.125 46.342,10.997 45.549,11.031 45.021,11.197    45.912,11.66 46.605,12.354 47.926,13.411 48.719,14.27 49.051,14.468 49.578,14.997 49.688,15.69 50,16.119 50,16.548    50.747,17.375 50.757,18.167 51.043,18.762 51.88,20.313 52.445,21.106 52.581,22.031 52.813,22.394 52.88,22.989 53.08,23.253    53.838,23.319 54.5,23.715 55.324,24.376 56.447,24.938 56.053,25.334 55.623,25.4 55.557,25.763 54.896,26.556 54.268,27.217    53.871,27.481 53.838,27.778 53.41,28.141 53.244,28.604 53.045,28.735 52.814,30.156 52.584,31.015 52.325,31.939 52,32.633    52,33.261 51.665,34.12 51.713,34.748 51.521,35.738 51.606,37.291 51.204,39.107 51.134,42.046 51.033,42.707 50.735,43.269    50.768,43.764 51.197,44.457 51.295,45.811 51.34,47.297 50.262,48.531 49.6,49.764 48.852,50.105 48.455,50.667 48.225,52.516    47.662,53.738 47.002,55.688 46.242,57.24 45.086,58.56 43.897,59.947 43.469,60.51 43.369,61.797 43.436,62.754 43.104,63.746    42.18,65.331 41.619,66.619 40.926,68.27 38.646,69.756 36.301,70.979 35.08,71.804 33.592,70.99 32.096,71.342 24.081,68.303    18.268,65.926 16.154,65.617 13.82,63.855 12.896,63.548 12.322,63.02 11.31,62.932 10.342,63.415 9.593,65.31 8.932,65.75    8.404,67.115 7.347,67.863 6.114,68.7 5.145,70.241 5,70.332 5,71 0,74 0,100 100,100 100,60 98,58 95,56.204  "></polygon></g></g></svg>